<?xml version="1.0" encoding="utf-8"?>
<!-- Generator: Adobe Illustrator 18.0.0, SVG Export Plug-In . SVG Version: 6.00 Build 0)  -->
<!DOCTYPE svg PUBLIC "-//W3C//DTD SVG 1.1//EN" "http://www.w3.org/Graphics/SVG/1.1/DTD/svg11.dtd">
<svg version="1.1" id="圖層_1" xmlns="http://www.w3.org/2000/svg" xmlns:xlink="http://www.w3.org/1999/xlink" x="0px" y="0px"
	 viewBox="0 0 42.2 18.1" enable-background="new 0 0 42.2 18.1" xml:space="preserve">
<path fill="#006934" d="M8.1,17.1l-0.3,0c-0.5,0-1-0.2-1.3-0.7l0-0.3v-0.1h0.1c1.5,0,3.2-0.3,5.1-0.8c0-0.1,0-0.2,0-0.3v-0.2
	c0-0.8-0.4-1.1-1.2-1.1h-0.1v-0.1c-0.1,0-0.4-0.1-1.3-0.3l-0.1,0V13c0-0.6,0.4-0.7,0.6-0.7H11c0.4,0,0.6-0.3,0.7-0.9L11.7,11
	l0.1-0.4c-0.1-0.1-0.1-0.4-0.2-0.7h-0.3c-0.6,0.3-1,0.4-1.4,0.4H9.6c-0.3,0-0.6-0.2-0.7-0.5c0-0.3,0-0.7,0.1-1.1
	c-0.3-0.9-0.7-2.1-1-3.5l0-0.6h0.1c0.5,0,0.9,0.4,1.6,1.3c1.9-0.1,2-0.4,2-0.5c0-1.5-0.6-1.5-0.7-1.5c-0.2,0-0.5,0.1-1.2,0.4
	c-0.6,0-1.1-0.1-1.4-0.1H8.2V3.6c0-0.2,0.2-0.5,2.6-0.6c0.2-0.3,0.5-0.4,1-0.5c0,0,0,0,0,0c0.2,0,0.4,0,0.7,0.1c0.9,0,1.5-0.3,2-1
	l0-0.1h0.8c1.3,1,1.8,1.7,1.8,2.4v0.2c0,1.6-0.5,3.3-1.5,5.2c-0.9,0.8-1.1,0.8-1.2,0.8h-0.3V10c0,0,0-0.1,0.1-0.7L14,9.3
	c-0.8,0-1.2,0.5-1.2,1.4v0.2c0,0.1,0,0.3,0.1,0.5c0.2-0.1,0.5-0.2,0.7-0.2h0.1l0.1,0c0.2,0.2,0.2,0.2,0.2,0.2
	c0.1-0.1,0.3-0.2,0.5-0.2h0.9c0.1,0,0.3,0.1,0.4,0.5l0,0.5c-0.3,0.5-0.8,0.7-1.5,0.7c-0.2,0-0.3,0-0.4-0.1c-0.7,0.2-1,0.4-1.1,0.5
	l0,0.1l0,0.5c0,0.2,0,0.5,0.1,0.8c0,0.1,0,0.2-0.1,0.2c0.1,0,0.2,0.1,0.5,0.3c1.1-0.1,2.5-0.4,2.5-1.1V14h0.3c0.4,0,0.8,0.3,1.1,1
	c0.5,0.1,1,0.5,1.6,1.2l0,0V17l-0.5,0.1h0c-0.4,0-1.1-0.1-2-0.4c0,0,0,0-0.1,0.1l0,0l-0.1,0c-0.6-0.1-1.2-0.2-1.8-0.3l-0.5,0.1
	c-0.3-0.1-0.5-0.1-0.7-0.1c-0.1,0-0.2,0.1-0.5,0.4l0,0.1h-0.1c-0.2,0-0.4,0-1.1-0.3c-0.5,0-1.6,0.1-3.2,0.4L8.1,17.1L8.1,17.1z
	 M10.6,6.6c-0.3,0.1-0.5,0.1-0.5,0.3v0.3C10.3,8,10.6,8.4,11,8.4h0.1v0.1c0,0,0,0,0,0c0,0,0.1,0,0.1,0c0,0,0.3,0,0.3-1.9
	C11.2,6.6,10.9,6.6,10.6,6.6z M12.9,7.2c0,0.3,0.1,0.5,0.7,0.5h0.7c0.2-0.1,0.4-0.4,0.5-0.8c0,0,0,0,0,0c0,0-0.1-0.2-0.4-1
	c-0.5,0-1,0.2-1.5,0.4V7.2z M13,3.5c0.2,1.2,0.3,1.4,0.3,1.4c0.1,0,0.3-0.1,0.6-0.2l0.6,0.1c0.1,0,0.5,0,0.5-0.9V3.3
	c0,0,0-0.1-0.1-0.1C14.5,3.3,13.9,3.3,13,3.5z M2.5,16L2.5,16c-0.9-0.9-1.1-1-1.1-1l-0.1,0l0-0.1v-0.3c0-0.6,0.3-1.3,1.7-1.3
	c0.4-0.3,0.7-0.7,1.1-1.2c0-0.6,0-1.5,0.1-2.7C3.9,9.3,3.8,9.3,3.6,9.3c-0.2,0-0.8,0.1-1.8,0.3C1.3,9.3,1.1,9.2,1.1,9V8.7l0.1,0
	c2-0.4,2.9-1.1,2.9-2.2c0-0.1,0-0.2,0.1-0.4L4.2,5.7l0-0.8c0,0-0.1-0.2-1.3-0.5L2.5,4.4l-0.3,0L1.7,4.3V3.6h0.5
	c1.1,0,1.8-0.3,2.1-0.9l0-0.1l0.1,0C5,2.7,5.2,2.7,5.3,2.7c0,0,0.4,0,1-0.1C6.9,2.8,7.1,3,7.1,3.1v0.6c0,0.2-0.2,0.3-1,0.6
	C5.8,5.1,5.6,5.7,5.6,6V7c0.6,0.1,0.7,0.5,0.7,0.8c0,0.3-0.3,0.5-0.8,0.8C5.5,8.8,5.5,9.2,5.5,9.7v0.5l0.4,0.1H6v0.3
	c0,0.1-0.1,0.5-0.7,2c-0.1,0.6-0.2,1.1-0.2,1.3v0.6H5c0,0-0.2,0-0.4,0.1l-0.1,0l-0.1,0c-0.2-0.1-0.3-0.2-0.4-0.2
	c-0.9,1.1-1,1.4-1,1.5V16H2.5z"/>
<path fill="#006934" d="M10.6,6.4c0.3,0,0.7,0,1.2,0.1c-0.1,1.4-0.2,2.1-0.5,2.1c-0.2,0-0.3,0-0.3-0.1c-0.5,0-0.9-0.5-1-1.5V6.8
	C10,6.6,10.2,6.5,10.6,6.4z M14.6,5.8C14.9,6.6,15,6.9,15,7c-0.2,0.4-0.4,0.7-0.6,0.9h-0.7c-0.5,0-0.8-0.2-0.8-0.7V6.3
	C13.4,6,14,5.8,14.6,5.8z M14.8,3.1c0.2,0,0.2,0.1,0.2,0.2v0.5c0,0.7-0.2,1.1-0.6,1.1l-0.5-0.1C13.7,4.9,13.5,5,13.3,5h-0.1
	c-0.1,0-0.2-0.5-0.4-1.6C13.8,3.2,14.5,3.1,14.8,3.1z M2.3,3.7H1.8v0.5l0.4,0.1h0.2l0.4-0.1c1,0.3,1.4,0.5,1.4,0.7v0.8l0.1,0.6
	C4.4,6.3,4.3,6.4,4.3,6.5c0,1.2-1,1.9-3.1,2.3V9c0,0.1,0.2,0.2,0.5,0.4c1-0.2,1.6-0.3,1.8-0.3c0.2,0,0.4,0.1,0.6,0.2
	c-0.1,1.3-0.1,2.3-0.1,2.9c-0.4,0.5-0.7,1-1.2,1.2c-1,0-1.5,0.4-1.5,1.2v0.3c0.2,0,0.6,0.3,1.2,1h0.3c0-0.2,0.3-0.8,1-1.6H4
	c0.1,0,0.3,0.1,0.5,0.2C4.8,14.4,5,14.3,5,14.3v-0.5c0-0.2,0.1-0.7,0.2-1.4c0.5-1.1,0.7-1.7,0.7-1.9v-0.2H5.5
	c-0.1,0-0.1-0.1-0.2-0.2V9.7c0-0.5,0.1-1,0.2-1.3C5.9,8.2,6.2,8,6.2,7.8c0-0.4-0.2-0.6-0.7-0.7V6c0-0.3,0.2-0.9,0.5-1.8
	c0.6-0.2,1-0.4,1-0.5V3.1c0-0.1-0.2-0.2-0.6-0.4c-0.7,0.1-1,0.1-1.1,0.1c-0.1,0-0.3,0-0.8-0.1C4.2,3.4,3.4,3.7,2.3,3.7z M12.3,2.8
	c-0.3-0.1-0.5-0.1-0.6-0.1c-0.4,0-0.7,0.2-0.9,0.5C9.1,3.2,8.3,3.4,8.3,3.6v0.3h0.2c0.3,0,0.7,0,1.3,0.1c0.5-0.3,0.9-0.4,1.1-0.4H11
	c0.6,0,0.9,0.6,0.9,1.7c0,0.4-0.8,0.6-2.3,0.7C9,5.1,8.5,4.7,8.1,4.7H8.1v0.4c0.4,1.5,0.7,2.7,1,3.6C9,9.1,9,9.4,9,9.7
	c0.1,0.3,0.3,0.4,0.6,0.4h0.3c0.3,0,0.8-0.1,1.4-0.4h0.5c0,0.3,0.1,0.6,0.2,0.9L11.8,11l0.1,0.5c-0.2,0.6-0.5,1-0.9,1H9.7
	c-0.3,0-0.5,0.2-0.5,0.6c0.9,0.2,1.4,0.3,1.4,0.4c0.9,0,1.3,0.4,1.3,1.3v0.2c0,0.1,0,0.3-0.1,0.4c-2,0.6-3.7,0.9-5.2,0.9H6.6v0.2
	c0.3,0.4,0.7,0.7,1.2,0.7h0.2l0.2-0.1v0.1c1.7-0.3,2.7-0.4,3.2-0.4h0.1c0.5,0.2,0.8,0.3,1,0.3h0.1c0.2-0.3,0.4-0.5,0.6-0.5
	c0.1,0,0.3,0,0.6,0.1l0.6-0.1c0.6,0.1,1.1,0.2,1.8,0.3c0.1-0.1,0.2-0.1,0.2-0.1c1,0.3,1.6,0.4,2,0.4l0.4-0.1v-0.6
	c-0.6-0.7-1.1-1.1-1.6-1.2c-0.3-0.6-0.7-1-1-1H16c0,0.7-0.9,1.1-2.7,1.3C13,15.1,12.8,15,12.7,15c0-0.1,0-0.2,0.1-0.3
	c0-0.3-0.1-0.6-0.1-0.9v-0.4l-0.1-0.2c0.1-0.3,0.6-0.5,1.3-0.7c0.1,0.1,0.2,0.1,0.3,0.1h0.1c0.7,0,1.2-0.2,1.4-0.6v-0.4
	c-0.1-0.3-0.2-0.4-0.3-0.4h-0.9c-0.1,0-0.3,0.1-0.5,0.2c-0.1,0-0.2-0.1-0.3-0.2h-0.1c-0.3,0-0.5,0.1-0.8,0.3
	c-0.1-0.4-0.1-0.7-0.1-0.8v-0.2c0-1,0.5-1.5,1.4-1.5l0.3,0.1c-0.1,0.5-0.2,0.7-0.2,0.8h0.2c0.1,0,0.5-0.3,1.1-0.8
	c1-1.9,1.4-3.6,1.4-5.1V3.9c0-0.6-0.6-1.3-1.7-2.2h-0.7C14,2.4,13.3,2.8,12.3,2.8z"/>
<path fill="#006934" d="M34.6,17.7l0-0.1c-0.3-1.1-0.6-2.5-0.8-4.1l-1.1-0.9v-0.2c0.1-0.3,0.2-0.3,0.3-0.3c0.8,0.2,1.1,0.3,1.2,0.4
	c0.6-0.3,1.3-0.5,2.2-0.6c0.1-0.2,0.3-0.5,0.7-0.8l0.1-0.1l0.1,0.1c0.2,0.1,0.3,0.2,0.4,0.2l0.2-0.2l0.4,0h0.1l0,0.1
	c0.2,0.2,0.5,0.6,1.1,1.1l0,0v0.5l0,0c-0.6,0.5-0.9,1.2-0.9,2c0.3,0.3,0.4,0.3,0.4,0.3h0.1v1h-0.8c-0.3,0-0.7,0-1.3,0.1
	c-0.3-0.1-0.6-0.2-0.9-0.2h-0.3c-0.3,0.2-0.4,0.4-0.5,0.7l0.1,0.4c-0.1,0.3-0.2,0.5-0.4,0.5H34.6z M35.6,13c-0.3,0-0.4,0.1-0.4,0.2
	v1.5c0.1,0.2,0.2,0.3,0.4,0.3c0.1,0,0.4-0.1,1.2-0.4l0.1,0l0.1,0.1c0,0,0.1,0.1,0.2,0.1c0.5-0.7,0.6-0.8,0.6-0.8l0-0.1
	c0-0.3-0.1-0.7-0.3-1.1c-0.2,0-0.5,0.1-1.1,0.4L35.6,13z M25.9,15.5c-0.2-0.1-0.4-0.3-0.9-1.5c-0.2,0-0.3-0.2-0.3-0.3v-0.6
	c0-0.4,0.3-0.9,0.9-1.4C26.1,9.4,26.6,8,27,7.5c-0.7-3.6-1-3.8-1.1-3.8c-0.3,0-0.5-0.3-0.7-0.8l0,0V2.7c0.1-0.3,0.2-0.3,0.3-0.3h0.4
	l0,0c0.2,0.2,0.4,0.3,0.6,0.3h0.2c0.2,0,0.3,0,0.5-0.2l0,0l0.4,0.1c0.7-0.3,1-0.4,1.2-0.4V1.7c0-0.1,0.1-0.3,0.3-0.4l0.5,0
	c0.1,0,0.5,0.1,1.9,0.9c0.2,0.3,0.2,0.5,0.2,0.7V3l0,0C31,4,30.8,4.4,30.8,4.6c-0.2,0.3-0.3,0.6-0.3,0.8l0,0c0,0,0,0.1,0.5,0.2
	l0.1,0v0.6l-0.1,0c-2.9,0.7-3.3,1.3-3.3,1.6c-0.5,0.8-1,2.4-1.3,4.6c0,0.3,0.1,0.5,0.4,0.7l0.1,0c0,0,0.2,0,0.7-0.2
	c0.3,0.1,0.4,0.1,0.5,0.1l1.4-0.7l0.1-0.4c-0.6-1-1.3-1.8-1.9-2.3l-0.1,0V9.5c0-0.8,0.7-1.3,1.9-1.3c0.2-0.1,0.6-0.3,2-0.8l0.2-0.1
	v0.3l0,0.1c-1,1.2-2,1.9-2.9,1.9c0.1,0.2,0.6,0.6,1.8,1.7c0,0,0,0,0,0c0,0,0.2,0.1,0.6,0.5c0.3,0.1,0.5,0.3,0.6,0.5l0,0.2
	c-0.1,0.2-0.3,0.5-1.7,0.9c-0.6,0.4-1.7,0.8-3.2,1.2c-0.1,0.1-0.2,0.3-0.8,0.9l0,0H25.9z M28.1,6.2c0.1-0.1,0.2-0.3,0.2-0.7l0-0.1
	h0.1l0.1,0c0.3,0.1,0.5,0.2,0.5,0.2c0.3,0,0.5-0.7,0.5-1.9V3.4c0-0.2,0-0.3,0-0.3c-1.9,0.3-2.1,0.5-2.1,0.6
	C27.5,3.6,28,6.2,28.1,6.2z M41.1,11.2v-0.1c0-0.1-0.1-0.4-1.3-0.8l-0.3,0.1l-0.5,0l0.1-0.4l0-0.3c-0.4-0.4-1.4-0.9-3-1.7l-0.1,0
	V7.9l-0.1,0c-1.2,1.2-2.1,2.1-2.8,2.6l-0.3,0h-0.1v-0.1c0-0.1,0.2-0.4,2.1-2.8c0-0.3-1.5-0.8-1.3-1c0.1-0.1,1.6,0.4,1.7,0.3
	c0.4-0.7,0.7-1.4,0.9-1.9c0.2-0.4,0.3-0.7,0.5-0.9C36.9,3.9,37,3.8,37,3.8V3.5l-0.3-0.1L35.4,3c-2.1,3-2.9,3.4-3.3,3.5l-0.2,0V6.1
	l0,0c0.7-0.8,1.2-1.5,1.4-2.1l0-0.1h0.1c0,0,0.3-0.1,0.8-2.2c-0.1-0.2-0.2-0.4-0.3-0.6l0-0.3V0.6h0.1c0.4,0,0.7,0.2,1,0.7
	c0.3,0,0.6,0.2,0.6,0.9v0.1c-0.1,0.1-0.2,0.3-0.3,0.4c0.2,0,0.6-0.1,1.3-0.1c0.1,0,0.2,0,0.2,0.1c0.4-0.2,0.7-0.3,1-0.3h0.1l0,0
	c0.5,0.6,0.6,0.8,0.6,0.9v0.2c0,0.2-0.1,0.6-1,1.8c0,0,0,0,0,0c0,0,0,0.1-1.2,1.6l0,0.1c0,0,0.3,0.2,2.2,0.6
	c1.3,0.6,2.2,1.2,2.6,1.9l0,0.4c0.2,0.1,0.4,0.3,0.4,0.9V11l-0.1,0c-0.1,0.1-0.3,0.1-0.4,0.1H41.1z"/>
<path fill="#006934" d="M37.6,12.5c0.2,0.5,0.3,0.9,0.3,1.2v0.1c0,0.1-0.2,0.4-0.7,1c-0.1,0-0.2,0-0.3-0.1c-0.7,0.3-1.1,0.4-1.3,0.4
	c-0.3,0-0.5-0.1-0.6-0.4v-1.5c0-0.2,0.2-0.3,0.5-0.3h0.8C37,12.6,37.4,12.5,37.6,12.5z M36.5,11.9c-1,0.1-1.8,0.3-2.3,0.7
	c0-0.1-0.4-0.2-1.2-0.4c-0.1,0-0.1,0.1-0.2,0.2v0.1l1.1,1c0.2,1.6,0.5,2.9,0.8,4.1h0.4c0.1,0,0.2-0.1,0.2-0.4l-0.1-0.5
	c0.1-0.3,0.3-0.5,0.6-0.8h0.3c0.4,0,0.7,0.1,0.9,0.2c0.6-0.1,1-0.1,1.3-0.1H39v-0.7c-0.1,0-0.3-0.1-0.6-0.4c0-0.9,0.3-1.6,1-2.2
	v-0.4c-0.6-0.5-1-0.9-1.1-1.2H38l-0.2,0.2h-0.1c-0.1,0-0.3-0.1-0.5-0.2C36.7,11.4,36.5,11.7,36.5,11.9z M29.6,2.9
	c0.1,0,0.1,0.1,0.1,0.4v0.3c0,1.4-0.2,2-0.7,2c0,0-0.2-0.1-0.6-0.2h-0.1c-0.1,0.6-0.3,0.9-0.4,0.9c0-0.1,0-0.1-0.1-0.1l-0.6-2.7
	C27.3,3.4,28.1,3.2,29.6,2.9z M37,2.9c0-0.1,0-0.1-0.1-0.1h-0.1c-0.1,0-1.3,0-1.3,0.1l1.2,0.5l0.4,0.1v0.4c0,0.1-0.1,0.2-0.3,0.3
	c-0.2,0.3-0.5,1.2-1.3,2.6c-0.2,0.4-0.6,0.5-0.6,1.1c-1.3,1.6-1.9,2.4-1.9,2.5h0.2c0.6-0.5,1.6-1.4,2.8-2.6h0.1
	c0.1,0,0.2,0.1,0.2,0.2c1.7,0.8,2.7,1.3,3.1,1.7V10l-0.1,0.2h0.2l0.4-0.1c0.9,0.4,1.4,0.7,1.4,1h0.2c0.1,0,0.2,0,0.3-0.1
	c0-0.5-0.1-0.8-0.4-0.8V9.7C40.9,9,40,8.4,38.8,7.9c-1.6-0.3-2.3-0.6-2.3-0.8V6.9c0.8-1,1.2-1.6,1.2-1.6c0.6-0.9,1-1.5,1-1.7V3.3
	c0-0.1-0.2-0.3-0.6-0.8C37.8,2.6,37.4,2.7,37,2.9z M29,1.7v0.7c-0.1,0-0.6,0.1-1.3,0.4l-0.4-0.1c-0.2,0.1-0.4,0.2-0.6,0.2h-0.2
	c-0.3,0-0.5-0.1-0.7-0.4h-0.3c-0.1,0-0.1,0.1-0.2,0.2v0.1c0.2,0.5,0.4,0.7,0.6,0.7c0.4,0,0.8,1.3,1.3,4c-0.4,0.5-0.8,1.9-1.3,4.2
	c-0.6,0.5-0.9,0.9-0.9,1.3v0.6c0,0.1,0.1,0.2,0.2,0.2c0.4,0.9,0.7,1.4,0.8,1.5H26c0.5-0.5,0.7-0.8,0.7-0.9c1.5-0.4,2.6-0.8,3.3-1.2
	c1-0.2,1.6-0.5,1.6-0.7v-0.2c0-0.2-0.2-0.3-0.5-0.4c-0.3-0.3-0.5-0.4-0.6-0.4c-1.3-1.1-1.9-1.7-1.9-1.9V9.5h0.1
	c0.9,0,1.8-0.6,2.8-1.9V7.6c-1.3,0.5-2,0.7-2,0.8c-1.2,0-1.9,0.4-1.9,1.2c0.7,0.5,1.3,1.3,2,2.3v0.1l-0.1,0.4l-1.6,0.7
	c0,0-0.2,0-0.4-0.1c-0.4,0.1-0.6,0.2-0.7,0.2h-0.1c-0.3-0.2-0.5-0.5-0.5-0.8c0.3-2.3,0.7-3.8,1.3-4.6c0-0.6,1.1-1.1,3.4-1.7V5.7
	c-0.4-0.1-0.6-0.2-0.6-0.4c0-0.3,0.1-0.5,0.3-0.8c0-0.3,0.3-0.9,1-1.6V2.8c0-0.2,0-0.3-0.1-0.5c-1-0.6-1.7-0.9-1.9-0.9h-0.5
	C29,1.5,29,1.6,29,1.7z M34.2,0.9c0.1,0.2,0.2,0.5,0.3,0.8c-0.4,1.6-0.7,2.3-1,2.3c-0.2,0.6-0.7,1.3-1.4,2.1v0.2
	c0.6-0.1,1.8-1.4,3.6-4V2.2c0-0.5-0.2-0.8-0.6-0.8c-0.3-0.4-0.6-0.7-0.9-0.7h-0.1V0.9z"/>
</svg>
