<?xml version="1.0" encoding="utf-8"?>
<!-- Generator: Adobe Illustrator 18.0.0, SVG Export Plug-In . SVG Version: 6.00 Build 0)  -->
<!DOCTYPE svg PUBLIC "-//W3C//DTD SVG 1.1//EN" "http://www.w3.org/Graphics/SVG/1.1/DTD/svg11.dtd">
<svg version="1.1" id="圖層_1" xmlns="http://www.w3.org/2000/svg" xmlns:xlink="http://www.w3.org/1999/xlink" x="0px" y="0px"
	 viewBox="0 0 33.5 24.3" enable-background="new 0 0 33.5 24.3" xml:space="preserve">
<g>
	<g>
		<g>
			<g>
				<path id="alxs8QKvw" fill="#CCE1D9" d="M26.9,54.8L34.6,37H47l-6.7,17.8H26.9z"/>
			</g>
			<g>
				<g>
					<path id="alxs8QKvw_1_" fill="#040000" fill-opacity="0" stroke="#FFFFFF" d="M26.9,54.8L34.6,37H47l-6.7,17.8H26.9z"/>
				</g>
			</g>
		</g>
		<g>
			<g>
				<g>
					<path id="bLE2bwwvK" fill="#040000" fill-opacity="0" stroke="#FFFFFF" d="M-13.2-29.9"/>
				</g>
			</g>
		</g>
		<g>
			<g>
				<path id="dKy5CiitQ" fill="#7E9F92" d="M30.7,54.8L36,41.4H23.8l-6.5,13.4H30.7z"/>
			</g>
			<g>
				<g>
					<path id="dKy5CiitQ_1_" fill="#040000" fill-opacity="0" stroke="#FFFFFF" d="M30.7,54.8L36,41.4H23.8l-6.5,13.4H30.7z"/>
				</g>
			</g>
		</g>
		<g>
			<g>
				<path id="b3u4Cijhvr" fill="#447F67" d="M22.5,54.8l4.5-8.9H18l-4.5,8.9H22.5z"/>
			</g>
			<g>
				<g>
					<path id="b3u4Cijhvr_1_" fill="#040000" fill-opacity="0" stroke="#FFFFFF" d="M22.5,54.8l4.5-8.9H18l-4.5,8.9H22.5z"/>
				</g>
			</g>
		</g>
	</g>
</g>
<g>
	<g>
		<g>
			<g>
				<path id="alxs8QKvw_5_" fill="#CCE1D9" d="M13.4,17.8L21,0h12.5l-6.7,17.8H13.4z"/>
			</g>
			<g>
				<g>
					<path id="alxs8QKvw_2_" fill="#040000" fill-opacity="0" stroke="#FFFFFF" d="M13.4,17.8L21,0h12.5l-6.7,17.8H13.4z"/>
				</g>
			</g>
		</g>
		<g>
			<g>
				<g>
					<path id="bLE2bwwvK_1_" fill="#040000" fill-opacity="0" stroke="#FFFFFF" d="M-26.8-66.9"/>
				</g>
			</g>
		</g>
		<g>
			<g>
				<path id="dKy5CiitQ_5_" fill="#7E9F92" d="M17.2,17.8l5.3-13.4H10.3L3.8,17.8H17.2z"/>
			</g>
			<g>
				<g>
					<path id="dKy5CiitQ_2_" fill="#040000" fill-opacity="0" stroke="#FFFFFF" d="M17.2,17.8l5.3-13.4H10.3L3.8,17.8H17.2z"/>
				</g>
			</g>
		</g>
		<g>
			<g>
				<path id="b3u4Cijhvr_5_" fill="#447F67" d="M8.9,17.8l4.5-8.9H4.5L0,17.8H8.9z"/>
			</g>
			<g>
				<g>
					<path id="b3u4Cijhvr_2_" fill="#040000" fill-opacity="0" stroke="#FFFFFF" d="M8.9,17.8l4.5-8.9H4.5L0,17.8H8.9z"/>
				</g>
			</g>
		</g>
	</g>
</g>
<g>
	<path fill="#1D592F" d="M2.1,22.1l-0.5,0.8c0.1,0.2-0.3,0.5-0.4,0.5c-0.1,0-0.1-0.1-0.1-0.1c0-0.1,0-0.2,0.1-0.3l0.6-1
		c-0.1,0-0.3-0.1-0.3-0.2C1.4,21.3,1.7,21,2.3,21l0.9-1.4c-0.4,0.1-0.9,0.2-1.3,0.3v0c0.4,0,0.5,0,0.5,0.1c0,0.1-0.1,0.1-0.1,0.1
		l-0.5,0.1c-0.2,0-0.4,0.1-0.6,0.1c-0.1,0-0.2,0-0.2-0.2c0-0.2,0.2-0.6,0.3-0.8c0.3-0.4,1.6-0.7,2.8-0.7c0.6,0,1.7,0.1,1.7,0.9
		c0,0.3-0.2,0.8-0.4,1c-0.5,0.4-0.8,0.4-3,0.9v0l1.6,0.6c1,0.4,1,0.5,1,0.6c0.1,0.2,0.1,0.7-0.1,0.7c-0.2,0-0.6-0.2-0.7-0.3
		L2.1,22.1z M2.9,20.8l1.5-0.4c0.2-0.1,1.1-0.4,1.1-0.8c0-0.2-0.6-0.2-0.8-0.2l-1.1,0.1c0,0.2-0.1,0.4-0.2,0.6L2.9,20.8z"/>
	<path fill="#1D592F" d="M7.8,22.1c-0.4,0.5-1,1.1-1.6,1.1c-0.4,0-0.6-0.4-0.7-0.9c0-0.9,0.8-1.7,1.6-1.7c0.2,0,0.4,0.1,0.4,0.3
		c0,0.3-0.3,0.8-1.4,1.2l0,0.1c0,0.2,0.2,0.3,0.4,0.3c0.4,0,0.9-0.5,1.3-0.8L7.8,22.1z M7,21C7,21,7,20.9,7,21
		c-0.4,0-0.7,0.3-0.9,0.8C6.7,21.6,7.1,21.1,7,21z"/>
	<path fill="#1D592F" d="M8.7,22.6C8.6,22.7,8.2,23,8,23c-0.2,0-0.5-0.4-0.5-0.8c0-0.8,1.5-1.7,2.2-1.7c0.3,0,0.4,0.2,0.4,0.3
		S10,21,9.9,21.1c0.1,0.1,0.2,0.1,0.2,0.3c0,0.2-0.5,0.7-0.5,1c0,0.1,0.1,0.2,0.2,0.2c0.3,0,0.6-0.3,0.9-0.5l0,0.2
		c-0.3,0.3-1.1,1-1.4,1C9.1,23.2,9,23,9,22.8c0-0.2,0.1-0.6,0.2-0.7l0,0L8.7,22.6z M8,22.4c0,0,0,0.2,0.1,0.1c0.1,0,0.3,0,1.5-1.3
		l0,0C8.1,21.7,8,22.1,8,22.4z"/>
	<path fill="#1D592F" d="M12.5,22.1c-0.3,0.4-0.9,1-1.4,1c-0.4,0-0.5-0.5-0.5-0.9c0-0.7,0.3-1.4,0.7-2c0.5-0.7,1.1-1.3,1.3-1.3
		c0.1,0,0.1,0.2,0.1,0.2c0,0.6-0.2,1.2-1.5,2.6c-0.1,0.1-0.1,0.3,0,0.5c0.1,0.2,0.1,0.3,0.3,0.3c0.3,0,0.8-0.4,1-0.7L12.5,22.1z
		 M11.3,21.2c0.4-0.4,0.8-1.1,0.9-1.4C11.9,19.9,11.6,20.5,11.3,21.2L11.3,21.2z"/>
	<path fill="#1D592F" d="M15.9,22.1l-0.5,0.8c0.1,0.2-0.3,0.5-0.4,0.5c-0.1,0-0.1-0.1-0.1-0.1c0-0.1,0-0.2,0.1-0.3l0.6-1
		c-0.1,0-0.3-0.1-0.3-0.2c0.1-0.3,0.4-0.7,0.9-0.7l0.9-1.4c-0.4,0.1-0.9,0.2-1.3,0.3v0c0.4,0,0.5,0,0.5,0.1c0,0.1-0.1,0.1-0.1,0.1
		l-0.5,0.1c-0.2,0-0.4,0.1-0.6,0.1c-0.1,0-0.2,0-0.2-0.2c0-0.2,0.2-0.6,0.3-0.8c0.3-0.4,1.6-0.7,2.8-0.7c0.6,0,1.7,0.1,1.7,0.9
		c0,0.3-0.2,0.8-0.4,1c-0.5,0.4-0.8,0.4-3,0.9v0l1.6,0.6c1,0.4,1,0.5,1,0.6c0.1,0.2,0.1,0.7-0.1,0.7c-0.2,0-0.6-0.2-0.7-0.3
		L15.9,22.1z M16.6,20.8l1.5-0.4c0.2-0.1,1.1-0.4,1.1-0.8c0-0.2-0.6-0.2-0.8-0.2l-1.1,0.1c0,0.2-0.1,0.4-0.2,0.6L16.6,20.8z"/>
	<path fill="#1D592F" d="M21,21.3c0.1-0.1,0.7-0.7,0.9-0.7c0,0,0.1,0,0.1,0.4c0,0.2-0.1,0.3-0.2,0.4c-0.2,0.2-0.6,0.7-0.6,1
		c0,0.1,0.1,0.1,0.2,0.1c0.2,0,0.7-0.5,0.9-0.6l0,0.3c-0.3,0.3-0.9,1.1-1.4,1.1c-0.2,0-0.4-0.2-0.4-0.4c0-0.2,0.1-0.4,0.1-0.5l0,0
		c-0.2,0.2-0.6,0.8-1,0.8c-0.3,0-0.5-0.4-0.5-0.6c0-0.6,0.5-1.3,0.8-1.6c0.1-0.1,0.2-0.1,0.3-0.1c0.1,0,0.4-0.1,0.4,0.1
		c0,0.1-0.2,0.3-0.2,0.3c-0.2,0.2-0.2,0.3-0.5,0.5c-0.2,0.1-0.3,0.3-0.3,0.6c0,0,0,0.1,0,0.1c0.1,0,0.4-0.2,0.7-0.5L21,21.3z"/>
	<path fill="#1D592F" d="M24.1,22.1c-0.3,0.4-0.9,1-1.4,1c-0.4,0-0.5-0.5-0.5-0.9c0-0.7,0.3-1.4,0.7-2c0.5-0.7,1.1-1.3,1.3-1.3
		c0.1,0,0.1,0.2,0.1,0.2c0,0.6-0.2,1.2-1.5,2.6c-0.1,0.1-0.1,0.3,0,0.5c0.1,0.2,0.1,0.3,0.3,0.3c0.3,0,0.8-0.4,1-0.7L24.1,22.1z
		 M22.9,21.2c0.4-0.4,0.8-1.1,0.9-1.4C23.5,19.9,23.1,20.5,22.9,21.2L22.9,21.2z"/>
	<path fill="#1D592F" d="M26.2,22.1c-0.4,0.5-1,1.1-1.6,1.1c-0.4,0-0.6-0.4-0.7-0.9c0-0.9,0.8-1.7,1.6-1.7c0.2,0,0.4,0.1,0.4,0.3
		c0,0.3-0.3,0.8-1.4,1.2l0,0.1c0,0.2,0.2,0.3,0.4,0.3c0.4,0,0.9-0.5,1.3-0.8L26.2,22.1z M25.5,21C25.5,21,25.5,20.9,25.5,21
		c-0.4,0-0.7,0.3-0.9,0.8C25.1,21.6,25.5,21.1,25.5,21z"/>
</g>
</svg>
